User Type,Username,Date,Text
,Gnob77,2012-05-24T00:25Z,Looks like a decent zombie flick. Finally. Thx.
,ghostrx,2012-05-24T00:36Z,Thanks!
,majo0007,2012-05-24T17:02Z,THX!
,terjustkinst,2012-05-25T02:41Z,http://www.imdb.com/title/tt1781812/
,Gros_Shadok,2012-05-25T04:33Z,Thanks a lot ! :-)
,Kalohux,2012-05-26T06:54Z,"Finally a really good movie without any perverse cultural marxist, NWO propaganda. 

Thank you."
,pixidude,2012-05-27T06:52Z,"Good quality A/V
Awesome Zombie movie"
,kingjoser,2012-06-08T03:52Z,"For this video:


Format                           : AVI
Format/Info                      : Audio Video Interleave
File size                        : 1.40 GiB
Duration                         : 1h 48mn
Overall bit rate                 : 1 841 Kbps

Video
ID                               : 0
Format                           : MPEG-4 Visual
Format profile                   : Advanced Simple@L5
Format settings, BVOP            : 2
Format settings, QPel            : No
Format settings, GMC             : No warppoints
Format settings, Matrix          : Default (H.263)
Codec ID                         : XVID
Codec ID/Hint                    : XviD
Duration                         : 1h 48mn
Bit rate                         : 1 385 Kbps
Width                            : 720 pixels
Height                           : 304 pixels
Display aspect ratio             : 2.35:1
Frame rate                       : 25.000 fps
Color space                      : YUV
Chroma subsampling               : 4:2:0
Bit depth                        : 8 bits
Scan type                        : Progressive
Compression mode                 : Lossy
Bits/(Pixel*Frame)               : 0.253
Stream size                      : 1.05 GiB (75%)
Writing library                  : XviD 1.2.1 (UTC 2008-12-04)

Audio
ID                               : 1
Format                           : AC-3
Format/Info                      : Audio Coding 3
Mode extension                   : CM (complete main)
Codec ID                         : 2000
Duration                         : 1h 48mn
Bit rate mode                    : Constant
Bit rate                         : 448 Kbps
Channel(s)                       : 6 channels
Channel positions                : Front: L C R, Side: L R, LFE
Sampling rate                    : 48.0 KHz
Bit depth                        : 16 bits
Compression mode                 : Lossy
Stream size                      : 349 MiB (24%)
Alignment                        : Aligned on interleaves
Interleave, duration             : 64 ms (1.60 video frames)
Interleave, preload duration     : 192 ms
Title                            : VTS_01_1 T81 3_2ch 384Kbps DELAY 0ms_new"
